<?xml version="1.0" standalone="no"?>
<!DOCTYPE svg PUBLIC "-//W3C//DTD SVG 20010904//EN"
 "http://www.w3.org/TR/2001/REC-SVG-20010904/DTD/svg10.dtd">
<svg version="1.0" xmlns="http://www.w3.org/2000/svg"
 width="600.000000pt" height="300.000000pt" viewBox="0 0 600.000000 300.000000"
 preserveAspectRatio="xMidYMid meet">

<g transform="translate(0.000000,300.000000) scale(0.100000,-0.100000)"
fill="#FFFFFF" stroke="none">
<path d="M1500 1500 l0 -1500 1500 0 1500 0 0 1500 0 1500 -1500 0 -1500 0 0
-1500z m2418 638 c9 -9 12 -167 12 -650 l0 -638 -355 0 -355 0 0 125 c0 90 4
134 14 153 10 18 88 72 243 167 356 217 365 223 361 248 -3 22 -4 22 -313 25
l-310 2 -480 -306 c-636 -406 -648 -414 -657 -414 -5 0 -7 131 -6 291 l3 291
560 358 560 359 356 0 c264 1 358 -2 367 -11z"/>
</g>
</svg>
