<?xml version="1.0" standalone="no"?>
<!DOCTYPE svg PUBLIC "-//W3C//DTD SVG 20010904//EN"
 "http://www.w3.org/TR/2001/REC-SVG-20010904/DTD/svg10.dtd">
<svg version="1.0" xmlns="http://www.w3.org/2000/svg"
 width="500.000000pt" height="500.000000pt" viewBox="0 0 256.000000 256.000000"
 preserveAspectRatio="xMidYMid meet">

<g transform="translate(0.000000,256.000000) scale(0.100000,-0.100000)"
fill="#0066CC" stroke="none">
<path d="M410 1488 l1 -953 -91 -55 -90 -55 0 -110 c0 -126 13 -160 73 -188
32 -16 129 -17 1146 -17 l1111 0 0 955 0 955 -94 0 -95 0 -3 176 -3 176 -37
34 -38 34 -940 0 -940 0 0 -952z m1030 210 l159 -323 1 323 0 322 115 0 115 0
0 -530 0 -530 -147 0 -148 0 -165 351 -165 350 -3 -351 -2 -350 -115 0 -115 0
0 530 0 530 156 0 156 0 158 -322z"/>
</g>
</svg>
