<svg xmlns="http://www.w3.org/2000/svg" width="230" height="230" viewBox="0 0 60.85 60.85">
   <path fill="#67074c" d="m14.02 15.25 33.2 6.7h3.12V51.6H16.17A2.12 2.12 0 0 1 14 49.47l.02-2.93z"/>
  <path fill="#a90c7c" d="M47.42 39H16.93V9.25h28.32a2.12 2.12 0 0 1 2.17 2.12z"/>
  <path fill="#d44fae" d="m16.98 9.26-6.47 3.87v29.73L16.98 39Z"/>
  <path fill="#fff" d="M39.59 30v2.5q-.65.36-1.67.36-1.2 0-2.03-.47-.83-.5-1.48-1.84l-2-4.05h-1.84v6H26.4V15.81h6.32q1.81 0 3.17.55 1.38.55 2.12 1.57.77 1.03.77 2.41v1.5q0 1.22-.72 2.18-.7.95-1.93 1.57l1.86 3.5q.24.48.57.7.34.21.84.21zm-9.02-6.25h1.82q1.02 0 1.62-.5.6-.52.6-1.48v-1.19q0-.93-.63-1.4-.6-.5-1.6-.5h-1.8z" aria-label="R" font-family="Artifakt Legend" font-size="50.53" font-weight="800" style="line-height:1.25;-inkscape-font-specification:&quot;Artifakt Legend Ultra-Bold&quot;"/>
  <path fill="#fff" d="M29.37 47.35v.93q-.24.14-.62.14-.45 0-.76-.18-.31-.19-.55-.69l-.75-1.51H26v2.24h-1.55v-6.23h2.36q.67 0 1.18.2.52.2.8.59.28.38.28.9v.56q0 .45-.27.81-.26.36-.72.59l.7 1.3q.08.19.2.27.13.08.32.08zM26 45h.68q.38 0 .6-.19.23-.2.23-.55v-.44q0-.35-.23-.53-.22-.19-.6-.19H26zm6.48 3.41q-.77 0-1.34-.29-.56-.3-.86-.85-.3-.54-.3-1.25V44.3q0-.71.29-1.26.3-.54.86-.83.58-.3 1.38-.3 1.1 0 1.72.5.63.5.66 1.48h-1.43q-.03-.42-.26-.64-.23-.22-.67-.22-.46 0-.72.28-.26.29-.26.8v2.11q0 .51.25.8.26.28.72.28.48 0 .7-.23.23-.23.25-.7h1.45q-.13 2.05-2.44 2.05zm5.72-6.37q1.06 0 1.68.47.62.47.62 1.33v.6q0 .86-.67 1.35-.66.49-1.78.49h-.62v2h-1.56v-6.24zm.74 1.88q0-.39-.23-.58-.22-.2-.63-.2h-.65v2.03h.54q.97 0 .97-.85z" aria-label="RCP" font-family="Artifakt Legend" font-size="18.88" font-weight="800" letter-spacing="-.27" style="line-height:1.25;-inkscape-font-specification:&quot;Artifakt Legend Ultra-Bold&quot;"/>
</svg>
