<?xml version="1.0" standalone="no"?>
<!DOCTYPE svg PUBLIC "-//W3C//DTD SVG 20010904//EN"
 "http://www.w3.org/TR/2001/REC-SVG-20010904/DTD/svg10.dtd">
<svg version="1.0" xmlns="http://www.w3.org/2000/svg"
 width="400.000000pt" height="400.000000pt" viewBox="0 0 400.000000 400.000000"
 preserveAspectRatio="xMidYMid meet">

<g transform="translate(0.000000,400.000000) scale(0.100000,-0.100000)"
fill="#1867C0" stroke="none">
<path d="M728 2593 l-3 -1407 -135 -81 -135 -81 0 -440 0 -439 27 -47 c21 -34
41 -53 80 -72 l52 -26 1638 0 1638 0 0 1685 0 1685 -140 0 -140 0 0 223 c0
122 -5 239 -10 259 -14 49 -52 93 -104 121 l-41 22 -1362 3 -1363 2 -2 -1407z
m1648 762 c165 -31 296 -121 357 -244 l32 -66 0 -165 c0 -150 -2 -169 -22
-213 -27 -58 -112 -150 -170 -184 -24 -14 -43 -29 -43 -33 0 -23 189 -356 212
-373 15 -11 44 -23 65 -26 l38 -6 3 -117 3 -116 -45 -17 c-35 -13 -67 -16
-143 -13 -85 3 -105 8 -152 33 -29 16 -68 48 -86 70 -18 22 -83 140 -144 263
l-111 223 -83 -3 -82 -3 -3 -277 -2 -278 -195 0 -195 0 0 780 0 780 344 0
c264 0 362 -3 422 -15z m-631 -2456 c87 -24 135 -86 135 -174 0 -60 -19 -104
-61 -139 l-33 -28 22 -41 c46 -86 62 -107 82 -107 19 0 21 -5 18 -47 l-3 -48
-56 -3 c-74 -4 -98 16 -155 129 -41 82 -46 89 -74 89 l-30 0 0 -105 0 -105
-80 0 -80 0 0 288 c0 159 3 292 7 295 11 11 265 8 308 -4z m349 -41 c8 -29 29
-109 46 -178 17 -69 38 -150 47 -180 l16 -55 22 95 c13 52 37 157 55 233 l32
137 74 0 c41 0 74 -4 74 -9 0 -10 -132 -486 -151 -548 l-11 -33 -98 0 -98 0
-16 48 c-27 84 -156 524 -156 533 0 5 33 9 74 9 l75 0 15 -52z m876 -3 l0 -55
-80 0 -80 0 0 -240 0 -240 -75 0 -75 0 0 240 0 240 -75 0 -75 0 0 55 0 55 230
0 230 0 0 -55z"/>
<path d="M2000 2865 l0 -237 123 4 c137 4 182 19 220 72 19 27 22 46 25 151 3
142 -9 175 -79 215 -39 22 -58 25 -166 28 l-123 4 0 -237z"/>
<path d="M1590 721 l0 -91 49 0 c42 0 53 4 70 26 26 33 28 94 4 123 -13 15
-34 23 -70 28 l-53 6 0 -92z"/>
</g>
</svg>
