<?xml version="1.0" standalone="no"?>
<!DOCTYPE svg PUBLIC "-//W3C//DTD SVG 20010904//EN"
 "http://www.w3.org/TR/2001/REC-SVG-20010904/DTD/svg10.dtd">
<svg version="1.0" xmlns="http://www.w3.org/2000/svg"
 width="331.000000pt" height="331.000000pt" viewBox="0 0 331.000000 331.000000"
 preserveAspectRatio="xMidYMid meet">

<g transform="translate(0.000000,331.000000) scale(0.100000,-0.100000)"
fill="#4227F5" stroke="none">
<path d="M767 3115 c-45 -15 -82 -47 -105 -90 -15 -27 -17 -92 -19 -615 -1
-322 -3 -588 -3 -592 0 -5 -105 -8 -234 -8 -129 0 -246 -4 -260 -10 l-26 -10
0 -484 0 -484 22 -6 c13 -3 130 -6 261 -6 183 0 237 -3 237 -12 0 -7 1 -110 3
-228 l2 -215 27 -40 c15 -22 44 -49 64 -60 37 -20 58 -20 1108 -20 l1071 0 42
30 c24 17 49 42 55 58 7 15 19 27 25 27 19 0 19 2246 1 2253 -7 3 -143 118
-303 257 -159 139 -300 256 -313 261 -13 5 -372 9 -820 9 -649 -1 -804 -3
-835 -15z m1583 -323 c0 -181 3 -232 14 -248 13 -18 32 -19 288 -24 l273 -5 3
-1067 2 -1067 -22 -21 c-22 -20 -28 -20 -1069 -20 l-1048 0 -20 27 c-20 25
-21 36 -19 232 l3 206 673 5 c657 5 674 5 688 25 20 27 16 937 -4 957 -10 10
-152 14 -685 18 l-672 5 -3 578 -2 578 24 24 25 25 776 0 775 0 0 -228z m253
40 c67 -59 143 -125 170 -147 26 -21 47 -43 47 -47 0 -5 -80 -7 -177 -6 l-178
3 -3 153 c-2 100 1 152 8 152 6 0 65 -48 133 -108z m-1902 -1243 c98 -21 162
-114 142 -209 -6 -31 -59 -95 -96 -115 -17 -9 -14 -18 41 -110 33 -55 58 -103
55 -107 -2 -5 -35 -8 -73 -8 -79 0 -74 -5 -154 143 -20 37 -41 67 -46 67 -5 0
-11 -46 -12 -102 l-3 -103 -70 0 -70 0 -3 265 c-1 146 0 270 3 277 6 17 212
18 286 2z m577 -1 c5 -7 9 -33 8 -58 l-1 -45 -113 -3 -113 -3 3 -52 3 -52 80
0 80 0 0 -55 0 -55 -82 -3 -83 -3 0 -110 0 -110 -67 3 -68 3 -3 265 c-1 146 0
270 3 277 6 18 338 19 353 1z m390 0 c5 -7 26 -58 45 -113 20 -55 62 -173 95
-262 32 -89 57 -165 54 -168 -3 -3 -36 -5 -74 -5 -57 0 -70 3 -74 18 -3 9 -12
32 -20 50 l-14 32 -94 0 -95 0 -18 -50 -18 -50 -66 0 c-36 0 -68 3 -72 6 -3 3
-2 16 3 27 6 12 48 130 96 262 47 132 91 246 96 253 7 7 36 12 78 12 42 0 71
-5 78 -12z"/>
<path d="M560 1416 l0 -66 53 0 c63 0 87 19 87 67 0 41 -21 56 -86 61 l-54 4
0 -66z"/>
<path d="M1561 1348 c-13 -40 -26 -79 -28 -85 -4 -10 11 -13 57 -13 55 0 61 2
55 18 -4 9 -16 44 -27 77 -12 33 -24 63 -27 68 -4 4 -18 -26 -30 -65z"/>
</g>
</svg>
